/vscmnt/brussel_pixiu_data/_data_brussel/112/vsc11236/PredSimResults/SUBJ07mtu3D/worker10.mot
version=1
nRows=11
nColumns=50
inDegrees=yes
endheader
                time	         pelvis_tilt	         pelvis_list	     pelvis_rotation	           pelvis_tx	           pelvis_ty	           pelvis_tz	       hip_flexion_r	     hip_adduction_r	      hip_rotation_r	        knee_angle_r	       ankle_angle_r	         mtp_angle_r	       hip_flexion_l	     hip_adduction_l	      hip_rotation_l	        knee_angle_l	       ankle_angle_l	         mtp_angle_l	    lumbar_extension	      lumbar_bending	     lumbar_rotation	 ercspn_r/activation	 intobl_r/activation	 extobl_r/activation	    abd_r/activation	    add_r/activation	hamstrings_r/activation	bifemsh_r/activation	glut_max_r/activation	iliopsoas_r/activation	rect_fem_r/activation	  vasti_r/activation	gastroc_r/activation	 soleus_r/activation	tib_ant_r/activation	 ercspn_l/activation	 intobl_l/activation	 extobl_l/activation	    abd_l/activation	    add_l/activation	hamstrings_l/activation	bifemsh_l/activation	glut_max_l/activation	iliopsoas_l/activation	rect_fem_l/activation	  vasti_l/activation	gastroc_l/activation	 soleus_l/activation	tib_ant_l/activation	
          0.00000000	         -4.09414109	          0.16511340	          8.35304329	          0.00000000	          0.84947240	         -0.01325978	         30.15070635	         -2.42166312	         -4.32255522	         -7.05477284	          2.96529814	          0.26715816	        -14.64390443	          0.62901964	          4.11140656	         -8.57571198	          8.09400480	         27.47119843	        -10.08011468	         -1.91092701	         -1.67554990	          0.11691387	          0.14460542	          0.01000009	          0.01909669	          0.12516625	          0.05844622	          0.12842164	          0.07551448	          0.02790289	          0.01183788	          0.01000001	          0.01000005	          0.01000001	          0.38879746	          0.12806795	          0.01000001	          0.01000001	          0.03829560	          0.01000015	          0.01537995	          0.14891391	          0.01678496	          0.17802573	          0.01183795	          0.01000031	          0.13566095	          0.27450866	          0.01963821	
          0.01102750	         -4.10538442	          0.20157821	          8.35120320	          0.01568505	          0.84799064	         -0.01309838	         29.88673687	         -2.20478607	         -3.90638997	         -8.43482652	          2.66395532	          0.25071932	        -15.08389727	          0.57107703	          3.75418305	         -9.64645768	          7.16423169	         29.05855806	         -9.96947064	         -1.49258950	         -1.87890022	          0.09876220	          0.12797798	          0.01000001	          0.01733444	          0.10573335	          0.05712878	          0.13433579	          0.12544316	          0.02357078	          0.01000004	          0.01000001	          0.01658901	          0.01183794	          0.42257103	          0.14254226	          0.01000000	          0.01000013	          0.03234995	          0.02251040	          0.01299233	          0.12579404	          0.01417899	          0.15038610	          0.01000008	          0.01000001	          0.11459867	          0.25529502	          0.01658924	
          0.02205501	         -4.11058757	          0.23789914	          8.29790865	          0.03151993	          0.84672526	         -0.01284688	         29.54792119	         -2.03617557	         -3.52058935	         -9.71659661	          2.25991574	          0.24597200	        -15.38614234	          0.52628908	          3.35559505	        -10.97930176	          6.11949831	         30.58617637	         -9.85332499	         -1.07353583	         -2.07241593	          0.13277314	          0.10810854	          0.01000002	          0.09983836	          0.12136120	          0.05355783	          0.11347930	          0.12536879	          0.01991126	          0.01000001	          0.01000000	          0.01401345	          0.01000002	          0.47852001	          0.15432295	          0.01000000	          0.01000002	          0.02732740	          0.01901552	          0.01097547	          0.10626368	          0.01197761	          0.12703770	          0.01000025	          0.01000003	          0.09680644	          0.23268440	          0.01401365	
          0.03308251	         -4.11127899	          0.29260119	          8.19741192	          0.04731591	          0.84583892	         -0.01249489	         29.21900742	         -1.88672285	         -3.20826843	        -11.00014270	          1.83081387	          0.22670000	        -15.46931069	          0.51469040	          2.92780529	        -12.68858664	          4.93831242	         31.99741862	         -9.75284017	         -0.67474554	         -2.25481782	          0.14237684	          0.09132395	          0.01000001	          0.14638431	          0.14704205	          0.04744741	          0.09586090	          0.14987156	          0.01681991	          0.01000003	          0.01000001	          0.01183778	          0.01000001	          0.50200543	          0.19060397	          0.01000000	          0.01000002	          0.02308463	          0.02372054	          0.01256806	          0.08976554	          0.01011803	          0.10731427	          0.01000023	          0.01000006	          0.08177658	          0.19655864	          0.01183794	
          0.04411002	         -4.10744398	          0.35836046	          8.05611402	          0.06293726	          0.84546241	         -0.01205033	         28.95619675	         -1.74460951	         -2.94728741	        -12.42659787	          1.63361313	          0.20751913	        -15.25886787	          0.52814340	          2.47404721	        -14.88376156	          3.64418836	         33.14489478	         -9.67604830	         -0.28977190	         -2.42546974	          0.15051474	          0.07714529	          0.01000001	          0.18528672	          0.17129948	          0.04338053	          0.08097786	          0.17261423	          0.01420850	          0.01000003	          0.02337633	          0.01000004	          0.01000002	          0.50165513	          0.22729364	          0.01000000	          0.01000002	          0.01950059	          0.04391271	          0.01114493	          0.07582885	          0.01000001	          0.09065303	          0.01000009	          0.01000001	          0.06908021	          0.16604157	          0.01000002	
          0.05513752	         -4.10007783	          0.43362545	          7.87548615	          0.07828492	          0.84571626	         -0.01152591	         28.74287364	         -1.60991454	         -2.73551281	        -13.94931204	          1.68226700	          0.18928288	        -14.68577772	          0.56454421	          1.98340529	        -17.66206941	          2.25090841	         33.82713978	         -9.62598066	          0.08038359	         -2.58197981	          0.15832889	          0.06516796	          0.01000001	          0.20610778	          0.19361181	          0.04224971	          0.06840553	          0.18218407	          0.01200254	          0.01000004	          0.04603832	          0.01000006	          0.01000002	          0.48168239	          0.25064551	          0.01000000	          0.01000002	          0.01647299	          0.07276457	          0.01000055	          0.06405594	          0.01000000	          0.07657855	          0.01000006	          0.01000000	          0.05835504	          0.14026249	          0.01000000	
          0.06616503	         -4.09026644	          0.51934850	          7.65660113	          0.09334111	          0.84663600	         -0.01094196	         28.50177114	         -1.47984633	         -2.55754226	        -15.41710428	          1.94251169	          0.17628516	        -13.70918013	          0.61915768	          1.45415427	        -21.06973541	          0.72321562	         33.88331935	         -9.59624323	          0.43335454	         -2.72120594	          0.15846259	          0.05505019	          0.01000001	          0.21164139	          0.20558174	          0.04203728	          0.05778513	          0.18365354	          0.01013908	          0.01000003	          0.06219907	          0.01000005	          0.01000001	          0.44627320	          0.25840703	          0.01000000	          0.01000002	          0.01391545	          0.09579047	          0.01000104	          0.05411087	          0.01000000	          0.06468922	          0.01000004	          0.01000000	          0.04929502	          0.11848578	          0.01000000	
          0.07719253	         -4.07919087	          0.61257037	          7.40067313	          0.10812335	          0.84816069	         -0.01031119	         28.16091016	         -1.34683521	         -2.38792409	        -16.69140736	          2.37160411	          0.17932089	        -12.32423032	          0.67920043	          0.90877237	        -25.05710378	         -1.09507233	         33.32449516	         -9.57839694	          0.77052246	         -2.84020288	          0.13386209	          0.04650327	          0.01000001	          0.20590580	          0.20728008	          0.04707657	          0.04881364	          0.17145283	          0.01000002	          0.01000005	          0.08761616	          0.01000004	          0.01000001	          0.40268066	          0.26748627	          0.01000000	          0.01000001	          0.01175498	          0.11224864	          0.01000034	          0.04570986	          0.01000000	          0.05464579	          0.01000003	          0.00999999	          0.04164163	          0.10009005	          0.01000000	
          0.08822004	         -4.06865210	          0.71037216	          7.10796591	          0.12262540	          0.85019068	         -0.00962810	         27.66668384	         -1.20170088	         -2.18980914	        -17.65791672	          2.89983901	          0.22227855	        -10.55430628	          0.73602157	          0.38694910	        -29.52018211	         -3.23509380	         31.97293941	         -9.57123402	          1.08941485	         -2.93912252	          0.11307909	          0.03928332	          0.01000001	          0.20859980	          0.19479942	          0.05440949	          0.04123503	          0.14483365	          0.01000002	          0.01000002	          0.10808514	          0.01000006	          0.01000001	          0.35845420	          0.25698721	          0.01000000	          0.01000002	          0.00999999	          0.12103472	          0.01451177	          0.03861313	          0.01000000	          0.04616166	          0.01000002	          0.00999999	          0.03517649	          0.08455039	          0.05362559	
          0.09924754	         -4.06055844	          0.80338608	          6.78299228	          0.13679630	          0.85256833	         -0.00891236	         27.01309309	         -1.03638526	         -1.93547810	        -18.28432693	          3.44907962	          0.31675558	         -8.45869020	          0.79117375	         -0.05607124	        -34.33585747	         -5.37009986	         29.35543258	         -9.58027525	          1.39870998	         -3.01797711	          0.09552279	          0.03318432	          0.01000001	          0.21614306	          0.16547134	          0.06357754	          0.03483305	          0.12234726	          0.01000001	          0.01000001	          0.12718895	          0.01000004	          0.01000001	          0.32414613	          0.26877472	          0.03611050	          0.01000004	          0.01128162	          0.10224326	          0.01225901	          0.03261821	          0.01401365	          0.03899476	          0.01000081	          0.01000000	          0.02971510	          0.07142337	          0.20433862	
          0.11027505	         -4.05561891	          0.88583967	          6.43038142	          0.15060660	          0.85510270	         -0.00818930	         26.22235207	         -0.85392265	         -1.63546191	        -18.59800661	          3.96665091	          0.45831511	         -6.17174293	          0.87673917	         -0.38927789	        -39.27122351	         -6.66396245	         25.65361232	         -9.60850115	          1.69905078	         -3.07248639	          0.08069223	          0.02803223	          0.01000002	          0.20970417	          0.13978086	          0.06590089	          0.02942501	          0.10335205	          0.01000001	          0.01000001	          0.13925962	          0.01000004	          0.01000001	          0.29577124	          0.26612684	          0.03442061	          0.01183813	          0.01240195	          0.08636930	          0.01035617	          0.02755414	          0.01183794	          0.03294057	          0.01000026	          0.01000000	          0.02510168	          0.06033440	          0.21385484	
